<svg xmlns="http://www.w3.org/2000/svg" style="display: none;">
    <!-- Іконка Instagram -->
    <symbol id="icon-instagram" viewBox="0 0 24 24">
    <path d="M4 8a4 4 0 0 1 4 -4h8a4 4 0 0 1 4 4v8a4 4 0 0 1 -4 4h-8a4 4 0 0 1 -4 -4z" />
    <path d="M9 12a3 3 0 1 0 6 0a3 3 0 0 0 -6 0" />
    <path d="M16.5 7.5v.01" />
    </symbol>

    <!-- Іконка Telegram -->
    <symbol id="icon-telegram" viewBox="0 0 24 24">
    <path d="M15 10l-4 4l6 6l4 -16l-18 7l4 2l2 6l3 -4" />
    </symbol>

    <!-- Іконка Whatsapp -->
    <symbol id="icon-whatsapp" viewBox="0 0 24 24">
    <path d="M3 21l1.65 -3.8a9 9 0 1 1 3.4 2.9l-5.05 .9" />
    <path d="M9 10a.5 .5 0 0 0 1 0v-1a.5 .5 0 0 0 -1 0v1a5 5 0 0 0 5 5h1a.5 .5 0 0 0 0 -1h-1a.5 .5 0 0 0 0 1" />
    </symbol>

    <!-- Іконка mail -->
    <symbol id="icon-mail" viewBox="0 0 24 24">
    <path d="M3 7a2 2 0 0 1 2-2h14a2 2 0 0 1 2 2v10a2 2 0 0 1-2 2H5a2 2 0 0 1-2-2V7z"/>
    <path d="M3 7l9 6 9-6" />
    </symbol>

    <!-- Іконка телефону -->
    <symbol id="icon-phone" viewBox="0 0 24 24">
    <path d="M5 4h4l2 5l-2.5 1.5a11 11 0 0 0 5 5l1.5 -2.5l5 2v4a2 2 0 0 1 -2 2a16 16 0 0 1 -15 -15a2 2 0 0 1 2 -2" />
    </symbol>
</svg>
