<svg xmlns="http://www.w3.org/2000/svg" style="display: none;">

    <!-- Іконка місця на карті -->
<symbol id="icon-map-pin" viewBox="0 0 32 32">
<path d="M24.485 6.181c2.172 2.172 3.515 5.172 3.515 8.486 0 3.177-1.235 6.066-3.25 8.213l0.006-0.006-0.271 0.28-5.657 5.656c-0.724 0.723-1.723 1.171-2.828 1.171-1.011 0-1.935-0.375-2.64-0.995l0.004 0.004-0.192-0.18-5.659-5.657c-2.172-2.172-3.515-5.172-3.515-8.485 0-6.627 5.373-12 12-12 3.314 0 6.314 1.343 8.485 3.515v0zM16 10.667c-2.209 0-4 1.791-4 4s1.791 4 4 4v0c2.209 0 4-1.791 4-4s-1.791-4-4-4v0z"></path>
</symbol>
    <!-- Іконка logotype -->
    <symbol id="icon-camera" viewBox="0 0 32 32">
    <path d="M9.5 19c0 3.59 2.91 6.5 6.5 6.5s6.5-2.91 6.5-6.5-2.91-6.5-6.5-6.5-6.5 2.91-6.5 6.5zM30 8h-7c-0.5-2-1-4-3-4h-8c-2 0-2.5 2-3 4h-7c-1.1 0-2 0.9-2 2v18c0 1.1 0.9 2 2 2h28c1.1 0 2-0.9 2-2v-18c0-1.1-0.9-2-2-2zM16 27.875c-4.902 0-8.875-3.973-8.875-8.875s3.973-8.875 8.875-8.875c4.902 0 8.875 3.973 8.875 8.875s-3.973 8.875-8.875 8.875zM30 14h-4v-2h4v2z"></path>
    </symbol>

    <!-- Іконка Instagram -->
    <symbol id="icon-instagram" viewBox="0 0 24 24">
    <path d="M4 8a4 4 0 0 1 4 -4h8a4 4 0 0 1 4 4v8a4 4 0 0 1 -4 4h-8a4 4 0 0 1 -4 -4z" />
    <path d="M9 12a3 3 0 1 0 6 0a3 3 0 0 0 -6 0" />
    <path d="M16.5 7.5v.01" />
    </symbol>

    <!-- Іконка Telegram -->
    <symbol id="icon-telegram" viewBox="0 0 24 24">
    <path d="M15 10l-4 4l6 6l4 -16l-18 7l4 2l2 6l3 -4" />
    </symbol>

    <!-- Іконка Whatsapp -->
    <symbol id="icon-whatsapp" viewBox="0 0 24 24">
    <path d="M3 21l1.65 -3.8a9 9 0 1 1 3.4 2.9l-5.05 .9" />
    <path d="M9 10a.5 .5 0 0 0 1 0v-1a.5 .5 0 0 0 -1 0v1a5 5 0 0 0 5 5h1a.5 .5 0 0 0 0 -1h-1a.5 .5 0 0 0 0 1" />
    </symbol>

    <!-- Іконка mail -->
    <symbol id="icon-mail" viewBox="0 0 24 24">
    <path d="M3 7a2 2 0 0 1 2-2h14a2 2 0 0 1 2 2v10a2 2 0 0 1-2 2H5a2 2 0 0 1-2-2V7z"/>
    <path d="M3 7l9 6 9-6" />
    </symbol>

    <!-- Іконка телефону -->
    <symbol id="icon-phone" viewBox="0 0 24 24">
    <path d="M5 4h4l2 5l-2.5 1.5a11 11 0 0 0 5 5l1.5 -2.5l5 2v4a2 2 0 0 1 -2 2a16 16 0 0 1 -15 -15a2 2 0 0 1 2 -2" />
    </symbol>

    <!-- Іконка бургер-меню -->
    <symbol id="icon-menu" viewBox="0 0 32 32">
    <path stroke-linejoin="round" stroke-linecap="round" stroke-miterlimit="4" stroke-width="2.6667" d="M5.333 8h21.333"></path>
    <path stroke-linejoin="round" stroke-linecap="round" stroke-miterlimit="4" stroke-width="2.6667" d="M5.333 16h21.333"></path>
    <path stroke-linejoin="round" stroke-linecap="round" stroke-miterlimit="4" stroke-width="2.6667" d="M5.333 24h21.333"></path>
    </symbol>

    <!-- Іконка закриття -->
    <symbol id="icon-close" viewBox="0 0 24 24">
    <path d="M19 2H5a3 3 0 0 0-3 3v14a3 3 0 0 0 3 3h14a3 3 0 0 0 3-3V5a3 3 0 0 0-3-3zM9.613 8.21l.094.083 2.293 2.292 2.293-2.292a1 1 0 1 1 1.497 1.32l-.083.094-2.292 2.293 2.292 2.293a1 1 0 0 1-1.32 1.497l-.094-.083-2.293-2.292-2.293 2.292a1 1 0 0 1-1.497-1.32l.083-.094 2.292-2.293-2.292-2.293a1 1 0 0 1 1.32-1.497z"/>
    </symbol>
</svg>

